<svg  xmlns="http://www.w3.org/2000/svg" viewBox="0 0 384 512">
    <path fill="#ed8b00" d="
        M 192.34 280.8
        C 173.34 238.1 109.24 200.6 192.34 135
        C 296 53.2 242.84 0 242.84 0
        C 264.34 84.5 167.24 110.1 132.14 162.6
        C 108.24 198.5 143.84 237 192.34 280.8
        Z
        M 306.94 104.6
        C 307.04 104.6 131.74 148.4 215.44 244.8
        C 240.14 273.2 208.94 298.8 208.94 298.8
        S 271.64 266.4 242.84 225.9
        C 215.94 188.1 195.34 169.3 306.94 104.6
        Z"
    ></path>
    <path fill="#007396" d="
        M 277.74 312.9
        C 287.54 306.2 301.14 300.4 301.14 300.4
        S 262.44 307.4 223.94 310.6
        C 176.84 314.5 126.24 315.3 100.84 311.9
        C 40.74 303.9 133.84 281.8 133.84 281.8
        S 97.74 279.4 53.24 300.8
        C 0.74 326.2 183.24 337.8 277.74 312.9
        Z
        M 300.84 375.1 A 12.19 12.19 0 0 1 298.84 377.7 C 427.14 344 379.94 258.8 318.64 280.4 A 17.33 17.33 0 0 0 310.44 286.7 A 70.45 70.45 0 0 1 321.44 283.7 C 352.44 277.2 396.94 325.2 300.84 375.1 Z M 348 437.4 S 362.5 449.3 332.1 458.6 C 274.2 476.1 91.3 481.4 40.5 459.3 C 22.2 451.4 56.5 440.3 67.3 438 C 78.5 435.6 85 436 85 436 C 64.7 421.7 -46.3 464.1 28.6 476.2 C 232.84 509.4 401 461.3 348 437.4 Z M 124.44 396 C 45.74 418 172.34 463.4 272.54 420.5 A 185.89 185.89 0 0 1 244.34 406.7 C 199.64 415.2 178.94 415.8 138.34 411.2 C 104.84 407.4 124.44 396 124.44 396 Z M 304.24 493.2 C 225.54 508 128.44 506.3 70.94 496.8 C 70.94 496.7 82.74 506.5 143.34 510.4 C 235.54 516.3 377.14 507.1 380.44 463.5 C 380.44 463.5 374.04 480 304.24 493.2 Z M 260.64 353 C 201.44 364.4 167.14 364.1 123.84 359.6 C 90.34 356.1 112.24 339.9 112.24 339.9 C 25.44 368.7 160.44 401.3 281.74 365.8 A 60.37 60.37 0 0 1 260.64 353 Z"></path>
</svg>