<svg xmlns="http://www.w3.org/2000/svg" viewBox="0 0 448 512">
    <defs>
        <linearGradient id="blue-gradient">
            <stop offset="0" stop-color="#387eb8"></stop>
            <stop offset="1" stop-color="#366994"></stop>
        </linearGradient>
        <linearGradient id="yellow-gradient">
            <stop offset="0" stop-color="#ffe052"></stop>
            <stop offset="1" stop-color="#ffc331"></stop>
        </linearGradient>
    </defs>
    <path
        fill="url(#blue-gradient)"
        d="
        M 167.8 248.1
        H 274.6
        C 304.3 248.1 328 223.6 328 193.8
        V 91.9
        C 328 62.9 303.6 41.2 274.6 36.3
        C 238.8 30.4 199.9 30.7 167.8 36.4
        C 122.6 44.4 114.4 61.1 114.4 92
        V 132.7
        H 221.3
        V 146.3
        H 74.3
        C 43.2 146.3 16 165 7.5 200.5
        C -2.3 241.2 -2.7 266.6 7.5 309.1
        C 15.1 340.7 33.2 363.3 64.3 363.3
        H 101
        V 314.5
        C 101 279.2 131.5 248.1 167.8 248.1
        Z
        M 161.1 105.5
        C 150 105.5 141 96.4 141 85.2
        C 141.1 73.9 150 64.8 161.1 64.8
        C 172.1 64.8 181.2 74 181.2 85.2
        S 172.2 105.5 161.1 105.5
        Z"
    ></path>
    <path fill="url(#yellow-gradient)" d="
        M 439.8 200.5
        C 432.1 169.6 417.5 146.3 386.4 146.3
        H 346.3
        V 193.7
        C 346.3 230.5 315.1 261.5 279.5 261.5
        H 172.7
        C 143.5 261.5 119.3 286.5 119.3 315.8
        V 417.6
        C 119.3 446.6 144.5 463.6 172.7 471.9
        C 206.5 481.8 239 483.6 279.5 471.9
        C 306.4 464.1 332.9 448.4 332.9 417.6
        V 376.9
        H 226.2
        V 363.3
        H 386.4
        C 417.5 363.3 429 341.6 439.8 309.1
        C 451 275.6 450.5 243.4 439.8 200.5
        Z
        M 286.2 404
        C 297.3 404 306.3 413.1 306.3 424.3
        C 306.3 435.6 297.3 444.7 286.2 444.7
        C 275.2 444.7 266.1 435.5 266.1 424.3
        C 266.2 413 275.2 404 286.2 404
        Z"></path>
</svg>